<svg width="24" height="24" viewBox="0 0 24 24" fill="none" xmlns="http://www.w3.org/2000/svg">
<g id="pepicons-pop:person">
<g id="Group">
<path id="Vector" fill-rule="evenodd" clip-rule="evenodd" d="M7.20001 7.19999C7.20001 8.47303 7.70572 9.69393 8.6059 10.5941C9.50607 11.4943 10.727 12 12 12C13.2731 12 14.494 11.4943 15.3941 10.5941C16.2943 9.69393 16.8 8.47303 16.8 7.19999C16.8 5.92695 16.2943 4.70606 15.3941 3.80588C14.494 2.90571 13.2731 2.39999 12 2.39999C10.727 2.39999 9.50607 2.90571 8.6059 3.80588C7.70572 4.70606 7.20001 5.92695 7.20001 7.19999ZM14.4 7.19999C14.4 7.83651 14.1472 8.44696 13.6971 8.89705C13.247 9.34714 12.6365 9.59999 12 9.59999C11.3635 9.59999 10.753 9.34714 10.303 8.89705C9.85287 8.44696 9.60001 7.83651 9.60001 7.19999C9.60001 6.56347 9.85287 5.95302 10.303 5.50294C10.753 5.05285 11.3635 4.79999 12 4.79999C12.6365 4.79999 13.247 5.05285 13.6971 5.50294C14.1472 5.95302 14.4 6.56347 14.4 7.19999Z" fill="black"/>
<path id="Vector_2" d="M20.4 21.6C20.4 21.9182 20.2736 22.2235 20.0485 22.4485C19.8235 22.6736 19.5183 22.8 19.2 22.8C18.8817 22.8 18.5765 22.6736 18.3515 22.4485C18.1264 22.2235 18 21.9182 18 21.6V18.6C18 15.6072 15.3528 13.2 12.0192 13.2C8.67601 13.2 6.00001 15.6156 6.00001 18.6L6.00241 21.6C6.00241 21.9182 5.87598 22.2235 5.65093 22.4485C5.42589 22.6736 5.12067 22.8 4.80241 22.8C4.48415 22.8 4.17892 22.6736 3.95388 22.4485C3.72883 22.2235 3.60241 21.9182 3.60241 21.6L3.60001 18.6C3.60001 14.232 7.40281 10.8 12.0192 10.8C16.632 10.8 20.4 14.2284 20.4 18.6V21.6Z" fill="black"/>
</g>
</g>
</svg>
