<svg width="18" height="17" viewBox="0 0 18 17" fill="none" xmlns="http://www.w3.org/2000/svg">
<g id=".">
<path id="Vector" d="M9 1.59375C7.55373 1.59375 6.13993 1.99879 4.9374 2.75766C3.73486 3.51653 2.7976 4.59514 2.24413 5.85709C1.69067 7.11904 1.54586 8.50766 1.82801 9.84734C2.11017 11.187 2.80661 12.4176 3.82928 13.3835C4.85196 14.3493 6.15492 15.0071 7.57341 15.2735C8.99189 15.54 10.4622 15.4033 11.7984 14.8805C13.1346 14.3578 14.2766 13.4726 15.0801 12.3369C15.8836 11.2012 16.3125 9.86593 16.3125 8.5C16.3105 6.66894 15.5394 4.91343 14.1685 3.61868C12.7975 2.32393 10.9388 1.59568 9 1.59375ZM9 14.3438C7.77623 14.3438 6.57994 14.001 5.56241 13.3589C4.54488 12.7168 3.75182 11.8041 3.2835 10.7363C2.81518 9.6685 2.69265 8.49352 2.93139 7.35994C3.17014 6.22636 3.75944 5.18511 4.62478 4.36784C5.49012 3.55058 6.59262 2.99402 7.79288 2.76854C8.99314 2.54305 10.2372 2.65878 11.3679 3.10108C12.4985 3.54338 13.4648 4.29239 14.1447 5.25339C14.8246 6.21439 15.1875 7.34422 15.1875 8.5C15.1856 10.0493 14.5331 11.5347 13.3732 12.6302C12.2132 13.7257 10.6405 14.342 9 14.3438ZM13.5 8.5C13.5 8.6409 13.4407 8.77602 13.3353 8.87565C13.2298 8.97528 13.0867 9.03125 12.9375 9.03125H9C8.85082 9.03125 8.70774 8.97528 8.60226 8.87565C8.49677 8.77602 8.4375 8.6409 8.4375 8.5V4.78125C8.4375 4.64035 8.49677 4.50523 8.60226 4.4056C8.70774 4.30597 8.85082 4.25 9 4.25C9.14919 4.25 9.29226 4.30597 9.39775 4.4056C9.50324 4.50523 9.5625 4.64035 9.5625 4.78125V7.96875H12.9375C13.0867 7.96875 13.2298 8.02472 13.3353 8.12435C13.4407 8.22398 13.5 8.3591 13.5 8.5Z" fill="#F25D3B"/>
</g>
</svg>
