<svg width="19" height="16" viewBox="0 0 19 16" fill="none" xmlns="http://www.w3.org/2000/svg">
<g id="." clip-path="url(#clip0_15_153)">
<path id="Vector" d="M5.38935 0C5.56572 0 5.73486 0.0589998 5.85958 0.16402C5.98429 0.269041 6.05435 0.411479 6.05435 0.56V1.6072H13.1955V0.5672C13.1955 0.418679 13.2656 0.276241 13.3903 0.17122C13.515 0.0661998 13.6841 0.0072 13.8605 0.0072C14.0369 0.0072 14.206 0.0661998 14.3307 0.17122C14.4554 0.276241 14.5255 0.418679 14.5255 0.5672V1.6072H17.1C17.6037 1.6072 18.0869 1.77566 18.4432 2.07555C18.7995 2.37543 18.9997 2.78219 19 3.2064V14.4008C18.9997 14.825 18.7995 15.2318 18.4432 15.5317C18.0869 15.8315 17.6037 16 17.1 16H1.9C1.39625 16 0.913125 15.8315 0.556833 15.5317C0.200541 15.2318 0.000251873 14.825 0 14.4008L0 3.2064C0.000251873 2.78219 0.200541 2.37543 0.556833 2.07555C0.913125 1.77566 1.39625 1.6072 1.9 1.6072H4.72435V0.5592C4.7246 0.410817 4.79478 0.268585 4.91946 0.163737C5.04414 0.0588899 5.21315 -1.51411e-07 5.38935 0ZM1.33 6.1936V14.4008C1.33 14.4638 1.34474 14.5263 1.37339 14.5845C1.40203 14.6427 1.44402 14.6956 1.49695 14.7402C1.54988 14.7848 1.61271 14.8201 1.68187 14.8443C1.75103 14.8684 1.82515 14.8808 1.9 14.8808H17.1C17.1749 14.8808 17.249 14.8684 17.3181 14.8443C17.3873 14.8201 17.4501 14.7848 17.5031 14.7402C17.556 14.6956 17.598 14.6427 17.6266 14.5845C17.6553 14.5263 17.67 14.4638 17.67 14.4008V6.2048L1.33 6.1936ZM6.33365 11.6952V13.028H4.75V11.6952H6.33365ZM10.2914 11.6952V13.028H8.70865V11.6952H10.2914ZM14.25 11.6952V13.028H12.6664V11.6952H14.25ZM6.33365 8.5136V9.8464H4.75V8.5136H6.33365ZM10.2914 8.5136V9.8464H8.70865V8.5136H10.2914ZM14.25 8.5136V9.8464H12.6664V8.5136H14.25ZM4.72435 2.7264H1.9C1.82515 2.7264 1.75103 2.73882 1.68187 2.76294C1.61271 2.78706 1.54988 2.82242 1.49695 2.86699C1.44402 2.91156 1.40203 2.96448 1.37339 3.02271C1.34474 3.08095 1.33 3.14337 1.33 3.2064V5.0744L17.67 5.0856V3.2064C17.67 3.14337 17.6553 3.08095 17.6266 3.02271C17.598 2.96448 17.556 2.91156 17.5031 2.86699C17.4501 2.82242 17.3873 2.78706 17.3181 2.76294C17.249 2.73882 17.1749 2.7264 17.1 2.7264H14.5255V3.4696C14.5255 3.61812 14.4554 3.76056 14.3307 3.86558C14.206 3.9706 14.0369 4.0296 13.8605 4.0296C13.6841 4.0296 13.515 3.9706 13.3903 3.86558C13.2656 3.76056 13.1955 3.61812 13.1955 3.4696V2.7264H6.05435V3.4624C6.05435 3.61092 5.98429 3.75336 5.85958 3.85838C5.73486 3.9634 5.56572 4.0224 5.38935 4.0224C5.21298 4.0224 5.04384 3.9634 4.91912 3.85838C4.79441 3.75336 4.72435 3.61092 4.72435 3.4624V2.7264Z" fill="#F25D3B"/>
</g>
<defs>
<clipPath id="clip0_15_153">
<rect width="19" height="16" fill="white"/>
</clipPath>
</defs>
</svg>
