<svg width="17" height="16" viewBox="0 0 17 16" fill="none" xmlns="http://www.w3.org/2000/svg">
<g id="tabler:manual-gearbox-filled">
<path id="Vector" d="M13.4587 2C13.9601 1.99974 14.4456 2.16642 14.8291 2.47054C15.2126 2.77467 15.4694 3.19664 15.5542 3.66183C15.639 4.12702 15.5463 4.60544 15.2924 5.01247C15.0385 5.41951 14.6399 5.72893 14.167 5.886V6.66667C14.167 7.1971 13.9431 7.70581 13.5446 8.08088C13.1461 8.45595 12.6056 8.66667 12.042 8.66667H9.20866V10.114C9.57621 10.2361 9.901 10.451 10.1475 10.7352C10.3941 11.0193 10.5528 11.3618 10.6065 11.7251C10.6602 12.0885 10.6066 12.4587 10.4518 12.7954C10.2969 13.1321 10.0467 13.4222 9.72848 13.634C9.41025 13.8458 9.03626 13.9712 8.64741 13.9965C8.25855 14.0217 7.8698 13.9459 7.52367 13.7772C7.17753 13.6085 6.88734 13.3535 6.68481 13.0401C6.48228 12.7267 6.37522 12.3669 6.37533 12L6.37887 11.8827C6.4032 11.4896 6.55027 11.112 6.80165 10.7972C7.05304 10.4825 7.39755 10.2446 7.79199 10.1133V8.66667H4.25033V10.114C4.61787 10.2361 4.94267 10.451 5.1892 10.7352C5.43573 11.0193 5.59451 11.3618 5.64817 11.7251C5.70183 12.0885 5.64831 12.4587 5.49345 12.7954C5.3386 13.1321 5.08838 13.4222 4.77014 13.634C4.45191 13.8458 4.07793 13.9712 3.68907 13.9965C3.30022 14.0217 2.91147 13.9459 2.56534 13.7772C2.2192 13.6085 1.929 13.3535 1.72647 13.0401C1.52395 12.7267 1.41688 12.3669 1.41699 12L1.42053 11.8827C1.44486 11.4896 1.59194 11.112 1.84332 10.7972C2.09471 10.4825 2.43921 10.2446 2.83366 10.1133V5.886C2.41929 5.74812 2.06054 5.4927 1.80682 5.15493C1.5531 4.81716 1.41691 4.41365 1.41699 4L1.42053 3.88267C1.4432 3.52168 1.56944 3.17323 1.7858 2.87441C2.00217 2.57558 2.30057 2.33755 2.64925 2.18566C2.99793 2.03377 3.38384 1.97369 3.76591 2.01182C4.14799 2.04995 4.51193 2.18487 4.81901 2.40221C5.12609 2.61955 5.36481 2.91118 5.50977 3.24607C5.65474 3.58096 5.70052 3.94657 5.64225 4.30401C5.58398 4.66144 5.42383 4.99731 5.17885 5.27589C4.93387 5.55446 4.61322 5.76531 4.25103 5.886L4.25033 7.33333H7.79199V5.88667C7.37751 5.74874 7.01867 5.49322 6.76495 5.15532C6.51122 4.81742 6.3751 4.41377 6.37533 4L6.37887 3.88267C6.40154 3.52168 6.52777 3.17323 6.74414 2.87441C6.9605 2.57558 7.2589 2.33755 7.60758 2.18566C7.95626 2.03377 8.34217 1.97369 8.72425 2.01182C9.10632 2.04995 9.47026 2.18487 9.77734 2.40221C10.0844 2.61955 10.3231 2.91118 10.4681 3.24607C10.6131 3.58096 10.6589 3.94657 10.6006 4.30401C10.5423 4.66144 10.3822 4.99731 10.1372 5.27589C9.8922 5.55446 9.57156 5.76531 9.20937 5.886L9.20866 7.33333H12.042C12.2299 7.33333 12.41 7.2631 12.5429 7.13807C12.6757 7.01305 12.7503 6.84348 12.7503 6.66667V5.88667C12.3358 5.74874 11.977 5.49322 11.7233 5.15532C11.4696 4.81742 11.3334 4.41377 11.3337 4L11.3372 3.88267C11.369 3.37341 11.6064 2.89483 12.0007 2.54486C12.3951 2.19488 12.9166 1.99997 13.4587 2Z" fill="black"/>
</g>
</svg>
