<svg width="20" height="19" viewBox="0 0 20 19" fill="none" xmlns="http://www.w3.org/2000/svg">
<g id="mdi:location">
<path id="Vector" d="M10.0003 9.10421C9.44779 9.10421 8.91789 8.89569 8.52719 8.52452C8.13649 8.15336 7.91699 7.64995 7.91699 7.12504C7.91699 6.60013 8.13649 6.09672 8.52719 5.72556C8.91789 5.35439 9.44779 5.14587 10.0003 5.14587C10.5529 5.14587 11.0828 5.35439 11.4735 5.72556C11.8642 6.09672 12.0837 6.60013 12.0837 7.12504C12.0837 7.38495 12.0298 7.64231 11.9251 7.88244C11.8204 8.12256 11.6669 8.34074 11.4735 8.52452C11.28 8.70831 11.0503 8.85409 10.7976 8.95355C10.5448 9.05302 10.2739 9.10421 10.0003 9.10421ZM10.0003 1.58337C8.45323 1.58337 6.9695 2.16723 5.87554 3.20649C4.78157 4.24575 4.16699 5.6553 4.16699 7.12504C4.16699 11.2813 10.0003 17.4167 10.0003 17.4167C10.0003 17.4167 15.8337 11.2813 15.8337 7.12504C15.8337 5.6553 15.2191 4.24575 14.1251 3.20649C13.0312 2.16723 11.5474 1.58337 10.0003 1.58337Z" fill="#F25D3B"/>
</g>
</svg>
