<svg width="25" height="23" viewBox="0 0 25 23" fill="none" xmlns="http://www.w3.org/2000/svg">
<g id="material-symbols-light:person">
<path id="Vector" d="M12.4997 10.9106C11.6406 10.9106 10.9049 10.6289 10.2924 10.0654C9.67988 9.50188 9.37398 8.8253 9.37467 8.03563C9.37537 7.24596 9.68127 6.56874 10.2924 6.00396C10.9035 5.43918 11.6393 5.15839 12.4997 5.16159C13.3601 5.16478 14.0959 5.44589 14.707 6.00492C15.3181 6.56395 15.624 7.24117 15.6247 8.03659C15.6254 8.832 15.3195 9.50859 14.707 10.0663C14.0945 10.6241 13.3587 10.9049 12.4997 10.9106ZM5.20801 17.8403V16.2629C5.20801 15.8674 5.33301 15.4975 5.58301 15.1532C5.8337 14.8082 6.17051 14.5405 6.59342 14.3501C7.57676 13.9163 8.56079 13.5911 9.54551 13.3745C10.5295 13.1573 11.5143 13.0487 12.4997 13.0487C13.4851 13.0487 14.4702 13.1573 15.4549 13.3745C16.4396 13.5917 17.4229 13.9169 18.4049 14.3501C18.8285 14.5405 19.1653 14.8082 19.4153 15.1532C19.666 15.4975 19.7913 15.8674 19.7913 16.2629V17.8403H5.20801Z" fill="black"/>
</g>
</svg>
