<svg width="31" height="18" viewBox="0 0 31 18" fill="none" xmlns="http://www.w3.org/2000/svg">
<g id="material-symbols-light:travel-luggage-and-bags">
<path id="Vector" d="M14.0843 5.25001H16.9157V3.60601H14.0843V5.25001ZM15.5 9.28876C14.1127 9.28876 12.7711 9.14951 11.4752 8.87101C10.1809 8.59251 8.93919 8.23851 7.75 7.80901V6.46126C7.75 6.12826 7.95408 5.84326 8.36225 5.60626C8.77042 5.36926 9.26211 5.25051 9.83733 5.25001H12.7927V3.43276C12.7927 3.27776 12.8917 3.14276 13.0897 3.02776C13.2878 2.91276 13.5199 2.85526 13.786 2.85526H17.214C17.481 2.85526 17.7135 2.91276 17.9115 3.02776C18.1096 3.14276 18.2086 3.27776 18.2086 3.43276V5.25001H21.164C21.7375 5.25001 22.2283 5.36876 22.6365 5.60626C23.0446 5.84376 23.2491 6.12876 23.25 6.46126V7.80901C22.0617 8.23901 20.8199 8.59301 19.5248 8.87101C18.2297 9.14951 16.8881 9.28876 15.5 9.28876ZM9.83733 15.75V15C9.26297 15 8.77171 14.8813 8.36354 14.6438C7.95537 14.4063 7.75086 14.1215 7.75 13.7895V8.68951C8.85653 9.05651 10.0005 9.35901 11.182 9.59701C12.3634 9.83401 13.5875 9.97851 14.8542 10.0305V10.7888H16.1458V10.0305C17.4125 9.97851 18.6366 9.83376 19.818 9.59626C21.0003 9.35876 22.1443 9.05626 23.25 8.68876V13.7888C23.25 14.1223 23.0455 14.4075 22.6365 14.6445C22.2274 14.8815 21.7366 15.0003 21.164 15.0008V15.7508H19.8723V15.0008H11.1277V15.7508L9.83733 15.75Z" fill="black"/>
</g>
</svg>
