<svg width="16" height="13" viewBox="0 0 16 13" fill="none" xmlns="http://www.w3.org/2000/svg">
<g id="hugeicons:snow">
<path id="Vector" d="M14 7.71875L13.446 7.36179C12.8153 6.95554 12.5 6.75242 12.5 6.5C12.5 6.24758 12.8153 6.04446 13.446 5.63821L14 5.28125M2 5.28125L2.554 5.63821C3.18467 6.04446 3.5 6.24758 3.5 6.5C3.5 6.75242 3.18467 6.95554 2.554 7.36179L2 7.71875M9.71467 11.375L9.81867 10.8014C9.93733 10.1487 9.99667 9.82258 10.268 9.69529C10.5393 9.56746 10.916 9.68933 11.6707 9.932L12.3333 10.1454M6.28533 1.625L6.18133 2.19863C6.06267 2.85133 6.00333 3.17742 5.732 3.30471C5.46067 3.43254 5.084 3.31067 4.32933 3.068L3.66667 2.85458M3.33333 10.1465L4.04667 9.93254C4.85867 9.68988 5.26467 9.56854 5.55667 9.69529C5.84867 9.82204 5.912 10.1492 6.03933 10.8014L6.15133 11.375M12.6667 2.8535L11.9533 3.06692C11.1413 3.31067 10.7347 3.43146 10.4433 3.30471C10.152 3.17796 10.088 2.85079 9.96067 2.19863L9.84867 1.625M12.6667 6.5H3.33333M10.3333 9.75L5.66667 3.25M10.3333 3.25L5.66667 9.75" stroke="black" stroke-width="1.5" stroke-linecap="round" stroke-linejoin="round"/>
</g>
</svg>
